<?xml version="1.0" encoding="utf-8"?>
<!-- Generator: Adobe Illustrator 21.0.0, SVG Export Plug-In . SVG Version: 6.00 Build 0)  -->
<svg version="1.1" id="图层_1" xmlns="http://www.w3.org/2000/svg" xmlns:xlink="http://www.w3.org/1999/xlink" x="0px" y="0px"
	 viewBox="0 0 200 64" style="enable-background:new 0 0 200 64;" xml:space="preserve">
<style type="text/css">
	.st0{fill:#4285F4;}
	.st1{fill:#EA4335;}
	.st2{fill:#FBBC05;}
	.st3{fill:#34A853;}
</style>
<g>
	<path class="st0" d="M46.5,25.5v4.8H58c-0.4,2.7-1.2,4.7-2.6,6.1c-1.7,1.7-4.3,3.5-8.9,3.5c-7.1,0-12.6-5.7-12.6-12.8
		s5.5-12.8,12.6-12.8c3.8,0,6.6,1.5,8.6,3.4l3.4-3.4c-2.8-2.8-6.7-4.9-12-4.9c-9.7,0-17.8,7.9-17.8,17.6s8.1,17.6,17.8,17.6
		c5.2,0,9.2-1.7,12.3-4.9c3.2-3.2,4.2-7.6,4.2-11.2c0-1.1-0.1-2.1-0.3-3H46.5z"/>
	<path class="st1" d="M77.2,21.6c-6.3,0-11.4,4.8-11.4,11.3c0,6.5,5.1,11.3,11.4,11.3S88.6,39.5,88.6,33
		C88.6,26.4,83.5,21.6,77.2,21.6z M77.2,39.9c-3.4,0-6.4-2.8-6.4-6.9c0-4.1,3-6.9,6.4-6.9c3.4,0,6.4,2.8,6.4,6.9
		C83.6,37,80.7,39.9,77.2,39.9z"/>
	<path class="st0" d="M133,24.2h-0.2c-1.1-1.3-3.3-2.5-6-2.5c-5.7,0-10.6,4.9-10.6,11.3c0,6.4,4.9,11.3,10.6,11.3
		c2.7,0,4.9-1.2,6-2.6h0.2v1.6c0,4.3-2.3,6.7-6.1,6.7c-3,0-4.9-2.2-5.7-4l-4.3,1.8c1.2,3,4.5,6.7,10.1,6.7c5.8,0,10.8-3.4,10.8-11.8
		V22.2H133V24.2z M127.3,39.9c-3.4,0-6.1-2.9-6.1-6.9c0-4,2.6-6.9,6.1-6.9c3.4,0,6.1,2.9,6.1,6.9C133.4,37,130.7,39.9,127.3,39.9z"
		/>
	<path class="st2" d="M102.6,21.6c-6.3,0-11.4,4.8-11.4,11.3c0,6.5,5.1,11.3,11.4,11.3S114,39.5,114,33
		C114,26.4,108.9,21.6,102.6,21.6z M102.6,39.9c-3.4,0-6.4-2.8-6.4-6.9c0-4.1,3-6.9,6.4-6.9c3.4,0,6.4,2.8,6.4,6.9
		C109,37,106.1,39.9,102.6,39.9z"/>
	<path class="st3" d="M141.7,10h4.9v34.3h-4.9V10z"/>
	<path class="st1" d="M161.7,39.9c-2.5,0-4.3-1.2-5.5-3.4l15.2-6.3l-0.5-1.3c-0.9-2.5-3.8-7.2-9.7-7.2c-5.8,0-10.7,4.6-10.7,11.3
		c0,6.4,4.8,11.3,11.2,11.3c5.2,0,8.2-3.2,9.4-5l-3.9-2.6C166,38.6,164.2,39.9,161.7,39.9L161.7,39.9z M161.3,25.9
		c2,0,3.7,1,4.3,2.5l-10.2,4.2C155.4,27.9,158.8,25.9,161.3,25.9z"/>
</g>
</svg>
