<?xml version="1.0" encoding="utf-8"?>
<!-- Generator: Adobe Illustrator 21.0.0, SVG Export Plug-In . SVG Version: 6.00 Build 0)  -->
<svg version="1.1" id="图层_1" xmlns:ev="http://www.w3.org/2001/xml-events"
	 xmlns="http://www.w3.org/2000/svg" xmlns:xlink="http://www.w3.org/1999/xlink" x="0px" y="0px" viewBox="0 0 333 333"
	 style="enable-background:new 0 0 333 333;" xml:space="preserve">
<style type="text/css">
	.st0{fill:#FFFFFF;}
</style>
<g>
	<path class="st0" d="M45,72h9h9h9v-9v-9v-9v-9v-9h-9h-9h-9h-9h-9v9v9v9v9v9h9H45z M36,54v-9v-9h9h9h9v9v9v9h-9h-9h-9V54z"/>
	<path class="st0" d="M45,306h9h9h9v-9v-9v-9v-9v-9h-9h-9h-9h-9h-9v9v9v9v9v9h9H45z M36,288v-9v-9h9h9h9v9v9v9h-9h-9h-9V288z"/>
	<rect x="45" y="135" class="st0" width="9" height="9"/>
	<polygon class="st0" points="63,189 72,189 72,180 81,180 81,171 72,171 63,171 63,180 54,180 54,189 54,198 63,198 	"/>
	<rect x="72" y="117" class="st0" width="9" height="9"/>
	<rect x="72" y="135" class="st0" width="9" height="9"/>
	<polygon class="st0" points="72,207 63,207 54,207 54,216 63,216 63,225 72,225 72,216 81,216 81,207 	"/>
	<polygon class="st0" points="81,189 72,189 72,198 81,198 90,198 90,189 90,180 81,180 	"/>
	<rect x="90" y="198" class="st0" width="9" height="9"/>
	<rect x="108" y="45" class="st0" width="9" height="9"/>
	<rect x="108" y="126" class="st0" width="9" height="9"/>
	<polygon class="st0" points="117,261 108,261 108,270 99,270 99,279 99,288 99,297 108,297 108,288 108,279 117,279 117,270 	"/>
	<polygon class="st0" points="135,45 135,36 126,36 126,45 126,54 135,54 	"/>
	<polygon class="st0" points="135,90 144,90 153,90 153,81 144,81 144,72 135,72 135,81 	"/>
	<polygon class="st0" points="144,54 144,63 153,63 162,63 162,54 153,54 	"/>
	<rect x="144" y="297" class="st0" width="9" height="9"/>
	<rect x="153" y="72" class="st0" width="9" height="9"/>
	<rect x="189" y="252" class="st0" width="9" height="9"/>
	<rect x="189" y="270" class="st0" width="9" height="9"/>
	<polygon class="st0" points="207,45 207,36 198,36 198,27 189,27 189,36 189,45 198,45 	"/>
	<polygon class="st0" points="207,90 207,81 198,81 198,72 198,63 189,63 180,63 171,63 171,72 171,81 180,81 180,72 189,72 189,81 
		189,90 180,90 171,90 162,90 153,90 153,99 144,99 144,108 153,108 162,108 162,117 153,117 144,117 144,108 135,108 135,117 
		126,117 126,126 126,135 135,135 135,126 144,126 144,135 135,135 135,144 144,144 153,144 153,135 162,135 162,144 162,153 
		171,153 171,144 171,135 180,135 180,126 189,126 189,117 180,117 180,108 180,99 189,99 198,99 198,90 	"/>
	<polygon class="st0" points="207,243 207,252 216,252 216,261 225,261 225,252 234,252 234,243 234,234 225,234 225,243 216,243 
		216,234 207,234 198,234 198,243 	"/>
	<rect x="207" y="45" class="st0" width="9" height="9"/>
	<rect x="207" y="72" class="st0" width="9" height="9"/>
	<rect x="207" y="90" class="st0" width="9" height="9"/>
	<polygon class="st0" points="225,288 225,279 216,279 216,270 207,270 207,279 207,288 198,288 189,288 189,297 189,306 198,306 
		207,306 207,297 216,297 216,288 	"/>
	<rect x="225" y="144" class="st0" width="9" height="9"/>
	<rect x="225" y="216" class="st0" width="9" height="9"/>
	<rect x="225" y="270" class="st0" width="9" height="9"/>
	<rect x="234" y="153" class="st0" width="9" height="9"/>
	<polygon class="st0" points="234,207 234,216 243,216 252,216 252,207 243,207 	"/>
	<rect x="252" y="162" class="st0" width="9" height="9"/>
	<rect x="252" y="198" class="st0" width="9" height="9"/>
	<path class="st0" d="M252,243h-9v9v9v9h9h9h9v-9v-9v-9h-9H252z M261,261h-9v-9h9V261z"/>
	<polygon class="st0" points="261,153 270,153 270,144 279,144 279,135 270,135 261,135 261,144 	"/>
	<rect x="261" y="189" class="st0" width="9" height="9"/>
	<polygon class="st0" points="279,180 279,171 270,171 261,171 261,180 270,180 	"/>
	<polygon class="st0" points="279,216 288,216 288,207 279,207 270,207 270,216 261,216 252,216 252,225 261,225 270,225 270,234 
		279,234 279,225 	"/>
	<polygon class="st0" points="288,153 279,153 270,153 270,162 279,162 279,171 288,171 288,180 288,189 297,189 297,180 297,171 
		297,162 288,162 	"/>
	<path class="st0" d="M288,27h-9h-9h-9v9v9v9v9v9h9h9h9h9h9v-9v-9v-9v-9v-9h-9H288z M297,45v9v9h-9h-9h-9v-9v-9v-9h9h9h9V45z"/>
	<rect x="288" y="198" class="st0" width="9" height="9"/>
	<path class="st0" d="M324,0h-9h-9h-9h-9h-9h-9h-9h-9h-9h-9h-9h-9h-9h-9h-9h-9h-9h-9h-9h-9h-9h-9h-9h-9h-9h-9h-9h-9h-9h-9h-9h-9h-9
		h-9H9H0v9v9v9v9v9v9v9v9v9v9v9v9v9v9v9v9v9v9v9v9v9v9v9v9v9v9v9v9v9v9v9v9v9v9v9v9v9h9h9h9h9h9h9h9h9h9h9h9h9h9h9h9h9h9h9h9h9h9h9
		h9h9h9h9h9h9h9h9h9h9h9h9h9h9h9v-9v-9v-9v-9v-9v-9v-9v-9v-9v-9v-9v-9v-9v-9v-9v-9v-9v-9v-9v-9v-9v-9v-9v-9v-9v-9v-9v-9v-9v-9v-9v-9
		v-9v-9v-9V9V0H324z M315,27v9v9v9v9v9v9h-9h-9h-9h-9h-9h-9h-9v-9v-9v-9v-9v-9v-9v-9h9h9h9h9h9h9h9V27z M315,108h-9h-9v-9v-9h9v9h9
		V108z M315,144h-9v9h-9v9h9v9h9v9h-9v9h-9v9h9v9h9v9h-9v9h-9v9h-9h-9v9h9v9h9h9v-9v-9h9v9v9h-9v9h9v9v9v9h-9v-9v-9h-9h-9v-9h-9v9v9
		h9v9h-9h-9v-9h-9h-9v9h9v9v9h9v9h-9v-9h-9v9h-9h-9v-9h9h9v-9v-9h-9h-9v9h-9h-9v9h9v9h-9h-9h-9h-9h-9v-9h-9v-9h-9v9v9h-9h-9v-9h-9v9
		h-9v-9v-9h9v-9h-9v-9h-9v9v9h-9v9h9v9h-9h-9h-9v-9v-9v-9v-9v-9h9v-9h-9v-9v-9h9v-9h9v-9h9v9h-9v9h-9v9h9h9h9h9v9h-9v9v9h9h9v9h9v9
		h9v-9h9v9h9v-9v-9h-9v-9h-9h-9v-9v-9h9v9h9h9v-9v-9h9v-9h9v-9h9v-9h-9v-9h9v9h9v-9h9v-9h-9h-9h-9v-9h9h9h9v9h9v-9h9h9h9v-9h-9v-9
		h-9h-9v9h-9v-9h-9v-9h-9v-9h-9v-9v-9h9v9v9h9v-9v-9h9v-9v-9h9v9h9v-9v-9h9v-9h-9v-9h-9v-9v-9h9v9v9h9v9h9v-9h9v9h-9v9v9h-9v9h-9v9
		v9h9v-9h9v-9h9v-9v-9h9v9v9v9h9v9v9h9v-9v-9h9h9V144z M288,306v9h-9v-9v-9h9h9v9h9v9h-9v-9H288z M18,306v-9v-9v-9v-9v-9v-9h9h9h9h9
		h9h9h9v9v9v9v9v9v9v9h-9h-9h-9h-9h-9h-9h-9V306z M18,234v-9v-9v-9h9v9v9v9v9h-9V234z M18,171h9h9v9h-9h-9V171z M18,135h9h9h9v-9h-9
		v-9h-9v-9h9h9h9v9v9v9h9v-9v-9v-9h9h9v9h9v9h-9v9h9v9v9h-9h-9h-9v-9h-9v9h-9v-9h-9h-9h-9V135z M18,90h9h9h9h9h9v9h-9h-9h-9h-9h-9
		V90z M18,72v-9v-9v-9v-9v-9v-9h9h9h9h9h9h9h9v9v9v9v9v9v9v9h-9h-9h-9h-9h-9h-9h-9V72z M108,27v9h9v-9h9h9v-9h9v9v9v9h9h9v-9h-9v-9
		v-9h9h9v9h-9v9h9v9h-9v9h9h9h9v-9h-9v-9v-9v-9h9h9v9h9v9h9v-9h9v-9h9h9v9h-9h-9v9v9h9h9v9h-9v9h-9h-9v9h9v9v9v9h9v9h-9h-9h-9v-9h-9
		v9h-9v9h9h9h9v9h-9h-9h-9v9v9v9h-9v9h-9h-9v9h9v9h9v-9h9v9v9h-9h-9v9h9h9v9h-9h-9v-9h-9v-9h9v-9h-9h-9v-9v-9h9v-9h-9h-9v9v9v9h-9v9
		h-9v9v9h9v-9h9v-9h9v9v9h9v9h-9v-9h-9v9h-9h-9v-9h-9v9h-9h-9h-9h-9v9h-9v9h9v9h-9v-9h-9h-9v9h-9v-9v-9v-9h-9v-9h9h9v-9h-9v-9v-9v-9
		v-9h9v9h9v-9h9h9v9h9v9h9v9v9h9v-9v-9v-9v-9h9v9v9h9h9v-9h-9v-9v-9h9v-9h-9v-9h-9v9v9h-9h-9v-9v-9v-9v-9v-9v-9h-9h-9h-9v-9h9h9h9h9
		h9v9h-9v9v9h9v-9h9h9v-9h-9v-9v-9v-9h9v-9h-9v-9h-9v9v9v9h-9v-9v-9v-9h-9h-9v-9h9v-9h-9v-9h9v-9h9V27z M207,180h-9v-9h9V180z
		 M162,234v9h-9v-9h-9v9h-9h-9v-9v-9h9v9h9v-9h9v9H162v-9h9v9H162z M27,189h9v9h-9V189z M90,72v-9h9v9v9h-9V72z M288,99h-9v-9h9V99z
		 M297,126h-9v-9h9V126z"/>
</g>
<g>
	<polygon points="27,234 27,225 27,216 27,207 18,207 18,216 18,225 18,234 18,243 27,243 	"/>
	<path d="M36,81h9h9h9h9h9v-9v-9v-9v-9v-9v-9v-9h-9h-9h-9h-9h-9h-9h-9v9v9v9v9v9v9v9h9H36z M27,63v-9v-9v-9v-9h9h9h9h9h9v9v9v9v9v9
		h-9h-9h-9h-9h-9V63z"/>
	<polygon points="36,99 45,99 54,99 63,99 63,90 54,90 45,90 36,90 27,90 18,90 18,99 27,99 	"/>
	<polygon points="36,144 45,144 45,135 36,135 27,135 18,135 18,144 27,144 	"/>
	<polygon points="36,180 36,171 27,171 18,171 18,180 27,180 	"/>
	<rect x="27" y="189" width="9" height="9"/>
	<polygon points="54,63 63,63 63,54 63,45 63,36 54,36 45,36 36,36 36,45 36,54 36,63 45,63 	"/>
	<polygon points="54,126 54,117 54,108 45,108 36,108 27,108 27,117 36,117 36,126 45,126 45,135 54,135 	"/>
	<rect x="45" y="144" width="9" height="9"/>
	<polygon points="54,180 63,180 63,171 54,171 54,162 45,162 45,171 45,180 45,189 45,198 54,198 54,189 	"/>
	<polygon points="45,270 36,270 36,279 36,288 36,297 45,297 54,297 63,297 63,288 63,279 63,270 54,270 	"/>
	<polygon points="63,144 63,153 72,153 81,153 90,153 90,144 90,135 81,135 81,144 72,144 72,135 81,135 81,126 72,126 72,117 
		81,117 81,108 72,108 63,108 63,117 63,126 63,135 54,135 54,144 	"/>
	<polygon points="63,216 54,216 54,207 45,207 36,207 36,216 45,216 45,225 45,234 45,243 54,243 54,234 63,234 72,234 72,225 
		63,225 	"/>
	<path d="M63,252h-9h-9h-9h-9h-9v9v9v9v9v9v9v9h9h9h9h9h9h9h9v-9v-9v-9v-9v-9v-9v-9h-9H63z M72,270v9v9v9v9h-9h-9h-9h-9h-9v-9v-9v-9
		v-9v-9h9h9h9h9h9V270z"/>
	<polygon points="81,171 81,162 72,162 63,162 63,171 72,171 	"/>
	<rect x="72" y="180" width="9" height="9"/>
	<rect x="72" y="216" width="9" height="9"/>
	<rect x="72" y="234" width="9" height="9"/>
	<rect x="81" y="117" width="9" height="9"/>
	<rect x="81" y="171" width="9" height="9"/>
	<polygon points="99,72 99,63 90,63 90,72 90,81 99,81 	"/>
	<polygon points="90,198 99,198 99,189 99,180 90,180 90,189 	"/>
	<polygon points="99,216 108,216 117,216 117,207 126,207 126,198 126,189 135,189 135,180 126,180 117,180 117,171 117,162 
		108,162 108,171 108,180 108,189 108,198 99,198 99,207 90,207 90,198 81,198 72,198 72,189 63,189 63,198 54,198 54,207 63,207 
		72,207 81,207 81,216 90,216 	"/>
	<polygon points="99,288 99,279 99,270 90,270 90,279 90,288 90,297 90,306 90,315 99,315 108,315 117,315 117,306 108,306 108,297 
		99,297 	"/>
	<rect x="99" y="234" width="9" height="9"/>
	<polygon points="108,63 108,72 108,81 117,81 117,72 117,63 117,54 108,54 	"/>
	<rect x="108" y="225" width="9" height="9"/>
	<polygon points="108,288 108,297 117,297 117,288 117,279 108,279 	"/>
	<polygon points="126,117 135,117 135,108 126,108 117,108 117,117 108,117 108,108 108,99 117,99 117,90 108,90 99,90 90,90 81,90 
		72,90 72,99 81,99 90,99 99,99 99,108 99,117 99,126 99,135 99,144 99,153 108,153 117,153 117,144 117,135 108,135 108,126 
		117,126 117,135 126,135 126,126 	"/>
	<polygon points="126,261 135,261 135,252 126,252 117,252 108,252 99,252 99,243 90,243 90,252 90,261 99,261 99,270 108,270 
		108,261 117,261 117,270 117,279 126,279 126,270 	"/>
	<rect x="126" y="135" width="9" height="9"/>
	<polygon points="135,216 144,216 144,207 153,207 153,198 153,189 144,189 144,198 135,198 135,207 126,207 126,216 	"/>
	<polygon points="135,225 126,225 126,234 126,243 135,243 144,243 144,234 135,234 	"/>
	<polygon points="144,99 153,99 153,90 144,90 135,90 135,81 135,72 126,72 126,81 126,90 126,99 135,99 135,108 144,108 	"/>
	<rect x="135" y="126" width="9" height="9"/>
	<polygon points="144,171 144,162 144,153 153,153 162,153 162,144 162,135 153,135 153,144 144,144 135,144 135,153 126,153 
		126,162 126,171 135,171 135,180 144,180 	"/>
	<polygon points="144,81 153,81 153,72 162,72 162,81 153,81 153,90 162,90 171,90 180,90 189,90 189,81 189,72 180,72 180,81 
		171,81 171,72 171,63 180,63 189,63 198,63 198,72 198,81 207,81 207,72 216,72 216,63 225,63 234,63 234,54 243,54 243,45 234,45 
		225,45 225,36 225,27 216,27 216,36 207,36 207,45 216,45 216,54 207,54 207,45 198,45 189,45 189,54 180,54 171,54 162,54 162,63 
		153,63 144,63 144,54 153,54 162,54 162,45 153,45 144,45 144,36 144,27 144,18 135,18 135,27 126,27 117,27 117,36 108,36 108,27 
		108,18 99,18 99,27 90,27 90,36 99,36 99,45 90,45 90,54 99,54 108,54 108,45 117,45 117,54 126,54 126,45 126,36 135,36 135,45 
		135,54 126,54 126,63 135,63 135,72 144,72 	"/>
	<polygon points="153,117 162,117 162,108 153,108 144,108 144,117 	"/>
	<rect x="144" y="225" width="9" height="9"/>
	<polygon points="153,297 153,288 144,288 144,279 135,279 126,279 126,288 135,288 135,297 126,297 126,306 126,315 135,315 
		135,306 144,306 144,297 	"/>
	<polygon points="153,171 153,180 162,180 171,180 171,171 162,171 162,162 153,162 	"/>
	<rect x="153" y="207" width="9" height="9"/>
	<rect x="153" y="234" width="9" height="9"/>
	<polygon points="153,306 144,306 144,315 153,315 162,315 162,306 162,297 153,297 	"/>
	<polygon points="171,27 171,18 162,18 153,18 153,27 153,36 162,36 162,27 	"/>
	<rect x="162" y="36" width="9" height="9"/>
	<rect x="162" y="189" width="9" height="9"/>
	<rect x="162" y="225" width="9" height="9"/>
	<rect x="162" y="288" width="9" height="9"/>
	<polygon points="180,189 189,189 189,180 189,171 180,171 180,180 171,180 171,189 	"/>
	<polygon points="180,207 189,207 189,198 180,198 171,198 171,207 	"/>
	<polygon points="189,27 198,27 198,18 189,18 180,18 180,27 180,36 180,45 189,45 189,36 	"/>
	<polygon points="180,99 180,108 180,117 189,117 189,108 198,108 198,99 189,99 	"/>
	<polygon points="180,135 171,135 171,144 171,153 162,153 162,162 171,162 180,162 180,153 189,153 189,144 189,135 189,126 
		180,126 	"/>
	<polygon points="198,126 207,126 216,126 216,117 207,117 198,117 189,117 189,126 	"/>
	<rect x="198" y="27" width="9" height="9"/>
	<rect x="198" y="90" width="9" height="9"/>
	<polygon points="207,135 198,135 198,144 198,153 207,153 207,144 	"/>
	<rect x="198" y="171" width="9" height="9"/>
	<rect x="198" y="207" width="9" height="9"/>
	<polygon points="207,81 207,90 216,90 216,99 207,99 207,108 216,108 225,108 234,108 234,99 225,99 225,90 225,81 225,72 216,72 
		216,81 	"/>
	<polygon points="216,189 207,189 198,189 198,198 207,198 216,198 225,198 225,189 	"/>
	<polygon points="243,27 243,18 234,18 225,18 225,27 234,27 	"/>
	<polygon points="243,72 234,72 234,81 234,90 243,90 243,81 	"/>
	<polygon points="234,306 234,315 243,315 252,315 252,306 243,306 	"/>
	<rect x="243" y="90" width="9" height="9"/>
	<polygon points="252,117 261,117 261,108 261,99 252,99 252,108 243,108 243,117 243,126 252,126 	"/>
	<path d="M261,162v9h9h9v-9h-9v-9h-9v-9v-9h-9v9h-9v-9v-9h-9v-9h-9v9v9h-9v9v9h-9v9h9v9h9v9h9v-9h9h9v-9H261z M234,162v-9h-9v-9h9v9
		h9v9H234z"/>
	<rect x="252" y="171" width="9" height="9"/>
	<rect x="252" y="252" width="9" height="9"/>
	<polygon points="252,306 261,306 261,297 261,288 252,288 252,297 	"/>
	<rect x="261" y="90" width="9" height="9"/>
	<path d="M270,225h-9h-9v-9h-9h-9v9h-9v-9h9v-9h9h9v-9h9v-9h-9h-9h-9v9h-9v9h-9v9h-9v9h-9v9h9h9v9h9v-9h9v9v9h-9v9h-9v-9h-9v-9h-9
		v-9h-9v9h-9v9v9h-9h-9v-9h-9v9v9h9h9v9h9v9v9h-9v9h9v9h9h9h9h9h9v-9h-9v-9h-9v9h-9h-9v-9v-9h9h9v-9v-9h9v9h9v-9h9v9h-9v9h-9v9h9h9
		v-9h9h9v-9h9h9v9h9h9v-9h-9v-9v-9h9v9h9h9v9v9h9v-9v-9v-9h-9v-9h-9h-9v-9h-9v-9h-9V225z M189,252h9v9h-9V252z M198,279h-9v-9h9V279
		z M270,252v9v9h-9h-9h-9v-9v-9v-9h9h9h9V252z"/>
	<rect x="261" y="306" width="9" height="9"/>
	<polygon points="279,135 279,126 279,117 279,108 270,108 270,117 270,126 261,126 261,135 270,135 	"/>
	<polygon points="270,144 270,153 279,153 288,153 288,144 288,135 279,135 279,144 	"/>
	<polygon points="279,36 270,36 270,45 270,54 270,63 279,63 288,63 297,63 297,54 297,45 297,36 288,36 	"/>
	<rect x="279" y="90" width="9" height="9"/>
	<polygon points="288,180 288,171 279,171 279,180 270,180 261,180 261,189 270,189 270,198 261,198 261,207 252,207 252,216 
		261,216 270,216 270,207 279,207 288,207 288,198 297,198 297,189 288,189 	"/>
	<rect x="288" y="117" width="9" height="9"/>
	<rect x="288" y="153" width="9" height="9"/>
	<polygon points="288,207 288,216 279,216 279,225 279,234 288,234 297,234 297,225 306,225 306,216 315,216 315,207 306,207 
		306,198 297,198 297,207 	"/>
	<polygon points="288,297 279,297 279,306 279,315 288,315 288,306 297,306 297,297 	"/>
	<polygon points="306,90 297,90 297,99 297,108 306,108 315,108 315,99 306,99 	"/>
	<polygon points="297,135 297,144 297,153 306,153 306,144 315,144 315,135 306,135 	"/>
	<polygon points="297,180 297,189 306,189 306,180 315,180 315,171 306,171 306,162 297,162 297,171 	"/>
	<rect x="297" y="306" width="9" height="9"/>
	<path d="M306,18h-9h-9h-9h-9h-9h-9v9v9v9v9v9v9v9h9h9h9h9h9h9h9v-9v-9v-9v-9v-9v-9v-9H306z M306,36v9v9v9v9h-9h-9h-9h-9h-9v-9v-9
		v-9v-9v-9h9h9h9h9h9V36z"/>
	<polygon points="315,243 315,234 306,234 306,243 306,252 315,252 	"/>
</g>
</svg>
