<?xml version="1.0" encoding="utf-8"?>
<!-- Generator: Adobe Illustrator 21.0.0, SVG Export Plug-In . SVG Version: 6.00 Build 0)  -->
<svg version="1.1" id="图层_1" xmlns:ev="http://www.w3.org/2001/xml-events"
	 xmlns="http://www.w3.org/2000/svg" xmlns:xlink="http://www.w3.org/1999/xlink" x="0px" y="0px" viewBox="0 0 330 330"
	 style="enable-background:new 0 0 330 330;" xml:space="preserve">
<style type="text/css">
	.st0{fill:#FFFFFF;}
</style>
<g>
	<path class="st0" d="M50,80h10h10h10V70V60V50V40V30H70H60H50H40H30v10v10v10v10v10h10H50z M40,60V50V40h10h10h10v10v10v10H60H50
		H40V60z"/>
	<polygon class="st0" points="50,140 60,140 70,140 70,130 60,130 50,130 50,120 40,120 40,110 30,110 30,120 30,130 30,140 40,140 
		40,150 50,150 	"/>
	<polygon class="st0" points="50,170 50,160 40,160 40,170 40,180 50,180 	"/>
	<path class="st0" d="M50,300h10h10h10v-10v-10v-10v-10v-10H70H60H50H40H30v10v10v10v10v10h10H50z M40,280v-10v-10h10h10h10v10v10
		v10H60H50H40V280z"/>
	<polygon class="st0" points="90,140 90,150 80,150 80,140 70,140 70,150 70,160 60,160 60,170 60,180 70,180 70,170 80,170 80,160 
		90,160 90,170 100,170 110,170 110,160 100,160 100,150 100,140 110,140 110,130 100,130 100,120 90,120 90,130 80,130 80,140 	"/>
	<rect x="80" y="170" class="st0" width="10" height="10"/>
	<polygon class="st0" points="90,220 100,220 100,210 90,210 80,210 80,200 90,200 100,200 100,210 110,210 110,200 110,190 
		110,180 100,180 100,190 90,190 80,190 70,190 60,190 60,180 50,180 50,190 50,200 50,210 50,220 60,220 60,210 70,210 70,220 
		80,220 	"/>
	<polygon class="st0" points="120,270 110,270 110,280 110,290 110,300 120,300 120,290 130,290 130,280 120,280 	"/>
	<rect x="120" y="50" class="st0" width="10" height="10"/>
	<rect x="120" y="140" class="st0" width="10" height="10"/>
	<polygon class="st0" points="150,140 160,140 160,130 150,130 140,130 140,140 140,150 150,150 	"/>
	<polygon class="st0" points="140,210 140,220 140,230 150,230 150,220 160,220 160,210 150,210 	"/>
	<polygon class="st0" points="150,190 140,190 140,180 140,170 150,170 150,180 160,180 160,170 170,170 170,160 160,160 150,160 
		140,160 140,150 130,150 130,160 120,160 120,170 120,180 130,180 130,190 120,190 120,200 120,210 130,210 130,200 140,200 
		150,200 160,200 160,190 	"/>
	<polygon class="st0" points="160,230 150,230 150,240 140,240 140,230 130,230 120,230 120,240 130,240 130,250 120,250 120,260 
		130,260 130,270 130,280 140,280 150,280 150,270 140,270 140,260 140,250 150,250 150,260 160,260 170,260 170,250 170,240 
		160,240 	"/>
	<rect x="160" y="140" class="st0" width="10" height="10"/>
	<rect x="160" y="200" class="st0" width="10" height="10"/>
	<rect x="160" y="220" class="st0" width="10" height="10"/>
	<rect x="160" y="270" class="st0" width="10" height="10"/>
	<polygon class="st0" points="180,70 180,60 170,60 160,60 160,70 170,70 	"/>
	<rect x="170" y="80" class="st0" width="10" height="10"/>
	<rect x="170" y="150" class="st0" width="10" height="10"/>
	<rect x="170" y="230" class="st0" width="10" height="10"/>
	<rect x="170" y="290" class="st0" width="10" height="10"/>
	<polygon class="st0" points="190,140 200,140 200,150 210,150 210,140 220,140 220,130 220,120 210,120 210,130 200,130 200,120 
		190,120 180,120 180,130 170,130 170,140 180,140 	"/>
	<rect x="180" y="280" class="st0" width="10" height="10"/>
	<polygon class="st0" points="190,250 190,260 180,260 180,270 190,270 200,270 200,280 210,280 220,280 220,270 220,260 210,260 
		200,260 200,250 200,240 190,240 	"/>
	<rect x="190" y="290" class="st0" width="10" height="10"/>
	<polygon class="st0" points="200,110 210,110 210,100 210,90 200,90 200,80 190,80 190,90 190,100 200,100 	"/>
	<polygon class="st0" points="210,190 210,180 200,180 200,170 200,160 190,160 180,160 180,170 180,180 190,180 190,190 180,190 
		180,180 170,180 160,180 160,190 170,190 170,200 180,200 190,200 200,200 200,190 	"/>
	<polygon class="st0" points="200,220 200,210 190,210 180,210 180,220 190,220 190,230 200,230 200,240 210,240 220,240 220,230 
		220,220 210,220 	"/>
	<polygon class="st0" points="210,90 220,90 220,80 220,70 210,70 200,70 200,80 210,80 	"/>
	<rect x="210" y="160" class="st0" width="10" height="10"/>
	<polygon class="st0" points="220,210 220,200 210,200 200,200 200,210 210,210 	"/>
	<polygon class="st0" points="220,110 220,120 230,120 230,110 230,100 220,100 	"/>
	<rect x="220" y="140" class="st0" width="10" height="10"/>
	<rect x="230" y="120" class="st0" width="10" height="10"/>
	<rect x="230" y="160" class="st0" width="10" height="10"/>
	<polygon class="st0" points="250,190 250,180 240,180 230,180 220,180 220,190 230,190 230,200 240,200 240,190 	"/>
	<path class="st0" d="M240,230h-10v10v10v10h10h10h10v-10v-10v-10h-10H240z M250,250h-10v-10h10V250z"/>
	<polygon class="st0" points="250,280 260,280 270,280 270,270 260,270 250,270 240,270 230,270 230,280 230,290 240,290 240,280 	
		"/>
	<polygon class="st0" points="270,170 260,170 260,160 250,160 250,170 250,180 260,180 260,190 270,190 280,190 280,180 290,180 
		290,170 280,170 280,160 280,150 270,150 270,160 	"/>
	<polygon class="st0" points="270,210 260,210 250,210 250,200 240,200 240,210 230,210 220,210 220,220 230,220 240,220 250,220 
		260,220 270,220 270,230 280,230 280,220 290,220 290,210 280,210 	"/>
	<path class="st0" d="M280,30h-10h-10h-10v10v10v10v10v10h10h10h10h10h10V70V60V50V40V30h-10H280z M290,50v10v10h-10h-10h-10V60V50
		V40h10h10h10V50z"/>
	<rect x="280" y="270" class="st0" width="10" height="10"/>
	<rect x="280" y="290" class="st0" width="10" height="10"/>
	<path class="st0" d="M320,0h-10h-10h-10h-10h-10h-10h-10h-10h-10h-10h-10h-10h-10h-10h-10h-10h-10h-10h-10h-10h-10h-10H90H80H70H60
		H50H40H30H20H10H0v10v10v10v10v10v10v10v10v10v10v10v10v10v10v10v10v10v10v10v10v10v10v10v10v10v10v10v10v10v10v10v10v10h10h10h10
		h10h10h10h10h10h10h10h10h10h10h10h10h10h10h10h10h10h10h10h10h10h10h10h10h10h10h10h10h10h10v-10v-10v-10v-10v-10v-10v-10v-10v-10
		v-10v-10v-10v-10v-10v-10v-10v-10v-10v-10v-10v-10v-10v-10V90V80V70V60V50V40V30V20V10V0H320z M310,30v10v10v10v10v10v10h-10h-10
		h-10h-10h-10h-10h-10V80V70V60V50V40V30V20h10h10h10h10h10h10h10V30z M310,120h-10v-10h-10v-10h10v10h10V120z M310,160h-10v-10h10
		V160z M310,200h-10v-10h10V200z M310,230v10h-10h-10v10h-10v10h10h10v-10h10v10v10v10h-10v10v10h-10v10h-10v-10h-10v10h-10h-10v-10
		v-10h-10v10h-10h-10v-10h-10v10h-10v10h-10v-10h-10v10h-10v-10h-10v-10h-10h-10v10h10v10h-10h-10h-10h-10h-10v-10v-10v-10v-10v-10
		h10v-10h-10v-10v-10H90H80H70v-10H60v10H50v-10H40v-10v-10H30v10v10v10H20v-10v-10v-10v-10h10h10v-10H30v-10v-10h10v-10H30v-10H20
		v-10v-10v-10v-10h10h10h10h10h10v10H60H50v10h10h10v10h10v-10h10v-10H80v-10h10h10h10h10h10v10h-10v10v10h10v-10h10h10v-10h-10v-10
		V90V80h10v10v10v10h10v-10V90V80V70h-10h-10V60h-10v10v10v10h-10V80V70V60h-10h-10V50h10V40h-10V30h10V20h10v10v10h10V30h10h10v10
		h-10v10v10h10h10V50h10h10h10v10h10h10h10V50h-10V40h10v10h10v10v10v10v10v10h10v10h10v-10h10v10h10v-10h10v10h-10v10v10h-10h-10
		v10h-10v10h10h10h10v-10h10h10v-10h10v10h-10v10v10v10h10v10h-10v10v10v10h10v10h10V230z M20,300v-10v-10v-10v-10v-10v-10h10h10h10
		h10h10h10h10v10v10v10v10v10v10v10H80H70H60H50H40H30H20V300z M20,80V70V60V50V40V30V20h10h10h10h10h10h10h10v10v10v10v10v10v10v10
		H80H70H60H50H40H30H20V80z M110,80v10h-10V80V70h10V80z M220,30h-10h-10v10h-10V30h-10v10h-10h-10V30h10h10V20h10h10h10h10V30z"/>
</g>
<g>
	<polygon points="30,120 30,110 40,110 40,120 50,120 50,110 60,110 70,110 70,100 60,100 50,100 40,100 30,100 20,100 20,110 
		20,120 20,130 20,140 30,140 30,130 	"/>
	<path d="M40,90h10h10h10h10h10V80V70V60V50V40V30V20H80H70H60H50H40H30H20v10v10v10v10v10v10v10h10H40z M30,70V60V50V40V30h10h10
		h10h10h10v10v10v10v10v10H70H60H50H40H30V70z"/>
	<rect x="30" y="140" width="10" height="10"/>
	<polygon points="40,160 30,160 30,170 30,180 40,180 40,170 	"/>
	<polygon points="50,200 50,190 50,180 40,180 40,190 30,190 20,190 20,200 20,210 20,220 20,230 30,230 30,220 30,210 30,200 
		40,200 40,210 40,220 50,220 50,210 	"/>
	<polygon points="60,70 70,70 70,60 70,50 70,40 60,40 50,40 40,40 40,50 40,60 40,70 50,70 	"/>
	<polygon points="60,130 70,130 70,120 60,120 50,120 50,130 	"/>
	<polygon points="50,170 50,180 60,180 60,170 60,160 70,160 70,150 70,140 60,140 50,140 50,150 40,150 40,160 50,160 	"/>
	<rect x="50" y="220" width="10" height="10"/>
	<polygon points="50,260 40,260 40,270 40,280 40,290 50,290 60,290 70,290 70,280 70,270 70,260 60,260 	"/>
	<rect x="60" y="210" width="10" height="10"/>
	<rect x="70" y="130" width="10" height="10"/>
	<path d="M70,240H60H50H40H30H20v10v10v10v10v10v10v10h10h10h10h10h10h10h10v-10v-10v-10v-10v-10v-10v-10H80H70z M80,260v10v10v10
		v10H70H60H50H40H30v-10v-10v-10v-10v-10h10h10h10h10h10V260z"/>
	<rect x="80" y="120" width="10" height="10"/>
	<rect x="80" y="140" width="10" height="10"/>
	<rect x="80" y="160" width="10" height="10"/>
	<polygon points="90,200 80,200 80,210 90,210 100,210 100,200 	"/>
	<polygon points="110,80 110,70 100,70 100,80 100,90 110,90 	"/>
	<polygon points="120,70 120,80 120,90 130,90 130,80 130,70 130,60 120,60 	"/>
	<polygon points="140,40 150,40 150,30 140,30 130,30 130,40 120,40 120,30 120,20 110,20 110,30 100,30 100,40 110,40 110,50 
		100,50 100,60 110,60 120,60 120,50 130,50 130,60 140,60 140,50 	"/>
	<polygon points="150,90 150,80 140,80 140,90 140,100 140,110 150,110 150,100 	"/>
	<polygon points="150,160 160,160 170,160 170,150 160,150 160,140 150,140 150,150 140,150 140,160 	"/>
	<polygon points="150,170 140,170 140,180 140,190 150,190 160,190 160,180 150,180 	"/>
	<rect x="140" y="230" width="10" height="10"/>
	<polygon points="150,60 140,60 140,70 150,70 160,70 160,60 	"/>
	<rect x="150" y="220" width="10" height="10"/>
	<rect x="160" y="190" width="10" height="10"/>
	<rect x="160" y="230" width="10" height="10"/>
	<polygon points="180,40 180,30 170,30 160,30 160,40 170,40 	"/>
	<polygon points="170,170 160,170 160,180 170,180 180,180 180,170 180,160 170,160 	"/>
	<rect x="170" y="300" width="10" height="10"/>
	<rect x="180" y="180" width="10" height="10"/>
	<rect x="180" y="290" width="10" height="10"/>
	<polygon points="190,40 200,40 200,30 210,30 220,30 220,20 210,20 200,20 190,20 180,20 180,30 190,30 	"/>
	<rect x="190" y="300" width="10" height="10"/>
	<rect x="200" y="80" width="10" height="10"/>
	<rect x="210" y="40" width="10" height="10"/>
	<polygon points="210,210 200,210 200,220 210,220 220,220 220,210 	"/>
	<path d="M230,120h10v10h-10V120h-10v10v10h10v10h-10v-10h-10v10h-10v-10h-10h-10h-10v10h10v10h10h10v10v10h10v10h-10v10h10h10v10
		h10h10v-10h-10v-10h-10v-10h10h10h10v-10v-10h10v10h10v-10v-10h-10h-10h-10v-10h10v-10h10h10v-10v-10h-10v-10h-10v10h-10v-10h-10
		v10V120z M210,170v-10h10v10H210z M240,170h-10v-10h10V170z"/>
	<rect x="240" y="240" width="10" height="10"/>
	<polygon points="270,40 260,40 260,50 260,60 260,70 270,70 280,70 290,70 290,60 290,50 290,40 280,40 	"/>
	<rect x="270" y="100" width="10" height="10"/>
	<polygon points="280,160 280,170 290,170 290,160 290,150 290,140 280,140 270,140 270,150 280,150 	"/>
	<polygon points="280,190 270,190 260,190 260,180 250,180 250,190 240,190 240,200 250,200 250,210 260,210 270,210 280,210 
		290,210 290,200 290,190 290,180 280,180 	"/>
	<rect x="280" y="300" width="10" height="10"/>
	<rect x="290" y="100" width="10" height="10"/>
	<rect x="290" y="130" width="10" height="10"/>
	<rect x="290" y="170" width="10" height="10"/>
	<path d="M300,210h-10v10h-10v10h-10v-10h-10h-10h-10h-10h-10v10v10h-10h-10v10v10h10h10v10v10h-10h-10v-10h-10h-10v-10h10v-10v-10
		h10v-10h-10v-10h-10v-10h10h10v-10h-10h-10h-10v10h-10v10h10v10h10v10h-10v10v10h-10h-10v-10h-10v10v10h10v10h-10h-10v10h-10v10
		h-10v-10v-10v-10h10v10h10v-10v-10h-10v-10h10v-10h-10v-10h10h10v-10v-10h10h10v-10h-10h-10h-10v10h-10v-10v-10h10v-10h-10v-10v-10
		h10v-10h-10v-10h10v10h10v-10v-10h10h10v10h10v-10h10v-10h10h10v10h10v-10h10v-10v-10h10V90V80V70V60V50h-10v10h-10h-10h-10V50h-10
		h-10h-10v10h10h10v10h-10h-10v10v10v10v10h-10v10h-10h-10v10h-10v-10v-10h10v-10h-10h-10h-10H90H80v10h10v10h10v10h10v10h-10v10v10
		h10v10h-10H90v10H80v-10H70v10H60v10h10h10h10h10v-10h10v10v10v10h-10v10H90H80H70v10h10h10h10v10v10h10v10h-10v10v10v10v10v10h10
		h10h10h10h10v-10h-10v-10h10h10v10h10v-10h10v-10h10v10h10v10h10v-10h10v10h10h10v-10h-10v-10v-10h10h10h10h10v10h-10h-10h-10v10
		h10v10v10h10h10v-10h10v-10h10v10h10v-10v-10h10v-10v-10v-10h-10v10h-10h-10v-10h10v-10h10h10v-10v-10h-10V210z M210,70h10v10v10
		h-10v10v10h-10v-10h-10V90V80h10V70H210z M170,80h10v10h-10V80z M160,280v-10h10v10H160z M250,260h-10h-10v-10v-10v-10h10h10h10v10
		v10v10H250z M290,270v10h-10v-10H290z"/>
	<path d="M300,20h-10h-10h-10h-10h-10h-10v10v10v10v10v10v10v10h10h10h10h10h10h10h10V80V70V60V50V40V30V20H300z M300,40v10v10v10
		v10h-10h-10h-10h-10h-10V70V60V50V40V30h10h10h10h10h10V40z"/>
	<rect x="300" y="110" width="10" height="10"/>
	<rect x="300" y="150" width="10" height="10"/>
	<rect x="300" y="190" width="10" height="10"/>
</g>
</svg>
