<?xml version="1.0" encoding="utf-8"?>
<!-- Generator: Adobe Illustrator 21.0.0, SVG Export Plug-In . SVG Version: 6.00 Build 0)  -->
<svg version="1.1" id="图层_1" xmlns:ev="http://www.w3.org/2001/xml-events"
	 xmlns="http://www.w3.org/2000/svg" xmlns:xlink="http://www.w3.org/1999/xlink" x="0px" y="0px" viewBox="0 0 330 330"
	 style="enable-background:new 0 0 330 330;" xml:space="preserve">
<style type="text/css">
	.st0{fill:#FFFFFF;}
</style>
<g>
	<path class="st0" d="M50,80h10h10h10V70V60V50V40V30H70H60H50H40H30v10v10v10v10v10h10H50z M40,60V50V40h10h10h10v10v10v10H60H50
		H40V60z"/>
	<rect x="40" y="180" class="st0" width="10" height="10"/>
	<path class="st0" d="M50,300h10h10h10v-10v-10v-10v-10v-10H70H60H50H40H30v10v10v10v10v10h10H50z M40,280v-10v-10h10h10h10v10v10
		v10H60H50H40V280z"/>
	<polygon class="st0" points="60,150 60,140 50,140 40,140 40,150 50,150 	"/>
	<rect x="50" y="190" class="st0" width="10" height="10"/>
	<rect x="60" y="150" class="st0" width="10" height="10"/>
	<rect x="60" y="200" class="st0" width="10" height="10"/>
	<rect x="80" y="150" class="st0" width="10" height="10"/>
	<polygon class="st0" points="90,180 90,170 80,170 70,170 70,180 70,190 80,190 80,180 	"/>
	<polygon class="st0" points="100,150 110,150 110,140 120,140 130,140 130,150 120,150 120,160 110,160 100,160 90,160 90,170 
		100,170 100,180 110,180 110,190 110,200 120,200 120,190 130,190 130,180 130,170 130,160 140,160 150,160 150,170 140,170 
		140,180 140,190 150,190 160,190 170,190 170,180 160,180 160,170 170,170 170,160 180,160 180,170 180,180 190,180 200,180 
		200,170 190,170 190,160 200,160 200,150 190,150 190,140 200,140 200,130 190,130 190,120 190,110 180,110 180,100 170,100 
		170,90 160,90 160,80 150,80 150,90 140,90 140,100 140,110 150,110 160,110 160,120 170,120 170,130 160,130 160,140 170,140 
		170,150 160,150 160,140 150,140 150,150 140,150 140,140 140,130 150,130 150,120 140,120 140,110 130,110 130,120 130,130 
		120,130 120,120 120,110 110,110 110,120 100,120 100,130 100,140 90,140 90,150 	"/>
	<rect x="110" y="80" class="st0" width="10" height="10"/>
	<rect x="120" y="100" class="st0" width="10" height="10"/>
	<rect x="130" y="80" class="st0" width="10" height="10"/>
	<polygon class="st0" points="170,80 170,90 180,90 180,80 190,80 190,90 190,100 200,100 200,110 210,110 220,110 220,100 210,100 
		210,90 200,90 200,80 200,70 190,70 180,70 180,60 170,60 170,70 160,70 160,80 	"/>
	<rect x="160" y="210" class="st0" width="10" height="10"/>
	<rect x="160" y="290" class="st0" width="10" height="10"/>
	<rect x="170" y="270" class="st0" width="10" height="10"/>
	<rect x="180" y="190" class="st0" width="10" height="10"/>
	<polygon class="st0" points="190,230 180,230 180,220 170,220 170,230 160,230 160,220 150,220 150,230 140,230 140,220 140,210 
		150,210 150,200 140,200 140,190 130,190 130,200 130,210 130,220 120,220 120,230 130,230 130,240 140,240 150,240 150,250 
		140,250 140,260 140,270 150,270 160,270 170,270 170,260 160,260 160,250 170,250 170,240 180,240 180,250 190,250 190,240 	"/>
	<rect x="180" y="260" class="st0" width="10" height="10"/>
	<polygon class="st0" points="210,170 220,170 220,160 210,160 200,160 200,170 	"/>
	<rect x="200" y="180" class="st0" width="10" height="10"/>
	<polygon class="st0" points="220,70 210,70 210,80 210,90 220,90 220,80 	"/>
	<polygon class="st0" points="210,140 200,140 200,150 210,150 220,150 220,140 220,130 220,120 210,120 200,120 200,130 210,130 	
		"/>
	<rect x="210" y="220" class="st0" width="10" height="10"/>
	<rect x="230" y="120" class="st0" width="10" height="10"/>
	<path class="st0" d="M250,260h10v-10v-10v-10h-10h-10h-10v10v10v10h10H250z M240,240h10v10h-10V240z"/>
	<rect x="250" y="110" class="st0" width="10" height="10"/>
	<polygon class="st0" points="250,270 240,270 240,280 250,280 260,280 270,280 270,270 260,270 	"/>
	<path class="st0" d="M260,160h-10h-10v10h10v10h-10v-10h-10v10h-10v10v10h-10h-10v10h-10v10h10h10v-10h10v10h10v-10h10v-10h-10v-10
		h10h10h10h10h10v-10h10v-10h-10v-10v-10h-10v10H260z M270,180h-10v-10h10V180z"/>
	<polygon class="st0" points="270,210 260,210 250,210 250,220 260,220 270,220 270,230 280,230 280,220 290,220 290,210 280,210 	
		"/>
	<path class="st0" d="M280,30h-10h-10h-10v10v10v10v10v10h10h10h10h10h10V70V60V50V40V30h-10H280z M290,50v10v10h-10h-10h-10V60V50
		V40h10h10h10V50z"/>
	<rect x="280" y="250" class="st0" width="10" height="10"/>
	<rect x="280" y="270" class="st0" width="10" height="10"/>
	<rect x="280" y="290" class="st0" width="10" height="10"/>
	<path class="st0" d="M320,0h-10h-10h-10h-10h-10h-10h-10h-10h-10h-10h-10h-10h-10h-10h-10h-10h-10h-10h-10h-10h-10h-10H90H80H70H60
		H50H40H30H20H10H0v10v10v10v10v10v10v10v10v10v10v10v10v10v10v10v10v10v10v10v10v10v10v10v10v10v10v10v10v10v10v10v10v10h10h10h10
		h10h10h10h10h10h10h10h10h10h10h10h10h10h10h10h10h10h10h10h10h10h10h10h10h10h10h10h10h10h10v-10v-10v-10v-10v-10v-10v-10v-10v-10
		v-10v-10v-10v-10v-10v-10v-10v-10v-10v-10v-10v-10v-10v-10V90V80V70V60V50V40V30V20V10V0H320z M310,30v10v10v10v10v10v10h-10h-10
		h-10h-10h-10h-10h-10V80V70V60V50V40V30V20h10h10h10h10h10h10h10V30z M310,120h-10v-10h-10v-10h10v10h10V120z M310,160h-10v-10h10
		V160z M310,200h-10v-10h10V200z M310,230v10h-10h-10v10h10v10v10h10v10h-10v10v10h-10v10h-10v-10h-10v10h-10h-10h-10v-10v-10h-10
		v10h-10v10h-10v-10v-10h10h10v-10v-10h-10v10h-10v-10h10v-10h-10v-10v-10v-10h-10v10v10h-10v10h10v10h-10v10v10h-10v10h-10v10h-10
		v-10h-10v10h-10v-10v-10h10v-10h-10v-10h-10h-10v10h10v10h-10h-10v10v10h-10v-10v-10v-10v-10v-10h10h10v-10h10v-10h-10h-10v10h-10
		v-10v-10h10v-10h-10v-10v-10v-10H90H80v10h10v10H80H70v10H60H50v10H40v-10v-10h10v-10H40v-10H30v10v10v10v10H20v-10v-10v-10v-10h10
		v-10H20v-10v-10h10v10h10v-10v-10H30v-10v-10h10h10h10v10h10v10h10v-10h10v-10H80H70v-10h10h10h10v-10H90H80v-10h10h10h10V90h-10
		V80V70h10V60h-10V50h10h10h10v10h-10v10v10h10V70h10h10h10V60V50h-10v10h-10V50V40h10h10h10v10h10v10h10V50h10V40h-10h-10V30h-10
		V20h10v10h10h10h10V20h10h10v10v10v10h-10V40V30h-10v10v10h-10v10h10h10h10v10v10v10h-10v10h10h10v10h10v-10h10v10h10v-10h10v10
		h-10v10h-10v10v10h-10h-10h-10v10h10h10h10h10v-10h10h10v-10h10v10h-10v10v10v10h10v10h-10v10v10v10h10v10h10V230z M190,300h10v10
		h-10V300z M120,300h10v10h-10V300z M20,300v-10v-10v-10v-10v-10v-10h10h10h10h10h10h10h10v10v10v10v10v10v10v10H80H70H60H50H40H30
		H20V300z M80,220h10v10H80V220z M20,100h10h10h10h10h10v10H60v10H50H40v-10H30H20V100z M20,80V70V60V50V40V30V20h10h10h10h10h10h10
		h10v10v10v10v10v10v10v10H80H70H60H50H40H30H20V80z M150,30h-10V20h10V30z M130,30v10h-10V30V20h10V30z M100,30h10v10h-10V30z"/>
</g>
<g>
	<polygon points="20,200 20,210 20,220 20,230 30,230 30,220 30,210 30,200 30,190 20,190 	"/>
	<path d="M40,90h10h10h10h10h10V80V70V60V50V40V30V20H80H70H60H50H40H30H20v10v10v10v10v10v10v10h10H40z M30,70V60V50V40V30h10h10
		h10h10h10v10v10v10v10v10H70H60H50H40H30V70z"/>
	<polygon points="40,110 40,120 50,120 60,120 60,110 70,110 70,100 60,100 50,100 40,100 30,100 20,100 20,110 30,110 	"/>
	<polygon points="50,140 60,140 60,130 50,130 40,130 30,130 30,140 30,150 40,150 40,140 	"/>
	<rect x="40" y="190" width="10" height="10"/>
	<polygon points="60,70 70,70 70,60 70,50 70,40 60,40 50,40 40,40 40,50 40,60 40,70 50,70 	"/>
	<polygon points="60,200 50,200 50,210 40,210 40,220 40,230 50,230 50,220 60,220 70,220 70,210 60,210 	"/>
	<polygon points="50,260 40,260 40,270 40,280 40,290 50,290 60,290 70,290 70,280 70,270 70,260 60,260 	"/>
	<rect x="60" y="140" width="10" height="10"/>
	<polygon points="70,180 70,170 80,170 90,170 90,160 80,160 80,150 70,150 70,160 60,160 60,150 50,150 40,150 40,160 40,170 
		30,170 30,160 20,160 20,170 20,180 30,180 30,190 40,190 40,180 50,180 50,190 60,190 60,200 70,200 70,210 80,210 90,210 90,200 
		80,200 80,190 70,190 	"/>
	<path d="M70,240H60H50H40H30H20v10v10v10v10v10v10v10h10h10h10h10h10h10h10v-10v-10v-10v-10v-10v-10v-10H80H70z M80,260v10v10v10
		v10H70H60H50H40H30v-10v-10v-10v-10v-10h10h10h10h10h10V260z"/>
	<rect x="80" y="140" width="10" height="10"/>
	<rect x="80" y="220" width="10" height="10"/>
	<polygon points="100,130 100,120 90,120 80,120 70,120 70,130 80,130 90,130 90,140 100,140 	"/>
	<rect x="100" y="30" width="10" height="10"/>
	<polygon points="110,110 120,110 120,100 130,100 130,110 140,110 140,100 140,90 130,90 130,80 120,80 120,90 110,90 110,100 
		100,100 90,100 80,100 80,110 90,110 100,110 100,120 110,120 	"/>
	<polygon points="110,160 120,160 120,150 130,150 130,140 120,140 110,140 110,150 100,150 90,150 90,160 100,160 	"/>
	<polygon points="120,80 120,70 120,60 130,60 130,50 120,50 110,50 100,50 100,60 110,60 110,70 100,70 100,80 100,90 110,90 
		110,80 	"/>
	<polygon points="130,30 130,20 120,20 120,30 120,40 130,40 	"/>
	<polygon points="120,120 120,130 130,130 130,120 130,110 120,110 	"/>
	<polygon points="120,230 120,220 130,220 130,210 130,200 130,190 120,190 120,200 110,200 110,190 110,180 100,180 100,170 
		90,170 90,180 80,180 80,190 90,190 100,190 100,200 100,210 100,220 110,220 110,230 100,230 100,240 100,250 110,250 110,240 
		120,240 130,240 130,230 	"/>
	<rect x="120" y="300" width="10" height="10"/>
	<polygon points="140,170 150,170 150,160 140,160 130,160 130,170 130,180 130,190 140,190 140,180 	"/>
	<polygon points="140,250 150,250 150,240 140,240 130,240 130,250 120,250 120,260 110,260 100,260 100,270 100,280 100,290 
		100,300 100,310 110,310 110,300 110,290 120,290 130,290 130,280 120,280 120,270 130,270 140,270 140,260 	"/>
	<rect x="140" y="20" width="10" height="10"/>
	<polygon points="140,90 150,90 150,80 160,80 160,70 150,70 140,70 130,70 130,80 140,80 	"/>
	<polygon points="150,120 150,130 140,130 140,140 140,150 150,150 150,140 160,140 160,130 170,130 170,120 160,120 160,110 
		150,110 140,110 140,120 	"/>
	<polygon points="170,60 180,60 180,50 170,50 170,40 160,40 150,40 140,40 140,50 140,60 150,60 150,50 160,50 160,60 160,70 
		170,70 	"/>
	<rect x="160" y="80" width="10" height="10"/>
	<rect x="160" y="140" width="10" height="10"/>
	<rect x="160" y="220" width="10" height="10"/>
	<rect x="160" y="300" width="10" height="10"/>
	<rect x="170" y="20" width="10" height="10"/>
	<polygon points="180,240 170,240 170,250 160,250 160,260 170,260 170,270 180,270 180,260 190,260 190,250 180,250 	"/>
	<polygon points="190,70 200,70 200,80 200,90 210,90 210,80 210,70 220,70 220,80 220,90 230,90 230,80 230,70 230,60 220,60 
		210,60 200,60 200,50 190,50 190,60 180,60 180,70 	"/>
	<polygon points="180,280 170,280 170,270 160,270 150,270 140,270 140,280 150,280 150,290 140,290 140,300 140,310 150,310 
		150,300 160,300 160,290 170,290 170,300 180,300 180,290 190,290 190,280 190,270 180,270 	"/>
	<rect x="190" y="140" width="10" height="10"/>
	<rect x="190" y="160" width="10" height="10"/>
	<rect x="190" y="260" width="10" height="10"/>
	<rect x="190" y="300" width="10" height="10"/>
	<polygon points="210,40 210,30 200,30 190,30 180,30 180,40 190,40 200,40 200,50 210,50 	"/>
	<rect x="200" y="130" width="10" height="10"/>
	<path d="M200,220h-10v-10h10v-10h10h10v-10v-10h10v-10h10v-10h10h10h10v-10h-10h-10h-10h-10v-10h10h10h10v-10v-10h-10v-10h-10v-10
		h-10h-10v10h-10h-10v-10h-10V90V80h-10v10h-10v10h10v10h10v10v10h10v-10h10h10v10v10v10h-10h-10v10h10h10v10h-10h-10v10h10v10h-10
		v-10h-10h-10v-10v-10h-10v10h-10v10h10v10h-10h-10h-10v10h10v10h-10v10v10h10v-10h10v-10h10v10h10v10h10v10v10h10v-10v-10h10v-10
		H200z M230,120h10v10h-10V120z M190,190v10h-10v-10H190z"/>
	<rect x="210" y="90" width="10" height="10"/>
	<rect x="210" y="210" width="10" height="10"/>
	<rect x="210" y="270" width="10" height="10"/>
	<polygon points="210,290 210,300 210,310 220,310 220,300 230,300 230,290 220,290 	"/>
	<polygon points="220,40 220,50 230,50 230,40 230,30 230,20 220,20 210,20 210,30 220,30 	"/>
	<rect x="240" y="170" width="10" height="10"/>
	<rect x="240" y="240" width="10" height="10"/>
	<rect x="250" y="100" width="10" height="10"/>
	<rect x="260" y="110" width="10" height="10"/>
	<rect x="260" y="170" width="10" height="10"/>
	<polygon points="270,40 260,40 260,50 260,60 260,70 270,70 280,70 290,70 290,60 290,50 290,40 280,40 	"/>
	<rect x="270" y="100" width="10" height="10"/>
	<polygon points="280,160 280,170 290,170 290,160 290,150 290,140 280,140 270,140 270,150 280,150 	"/>
	<rect x="280" y="300" width="10" height="10"/>
	<rect x="290" y="100" width="10" height="10"/>
	<rect x="290" y="130" width="10" height="10"/>
	<rect x="290" y="170" width="10" height="10"/>
	<path d="M300,210h-10v10h-10v10h-10v-10h-10h-10v-10h10h10h10h10v-10v-10v-10h-10v10h-10h-10h-10h-10h-10v10h10v10h-10v10h-10v10
		h-10v10v10v10h10v10h10v10v10h10v10v10h10h10h10v-10h10v-10h10v10h10v-10v-10h10v-10h-10v-10v-10h-10v10h-10v-10h10v-10h10h10v-10
		v-10h-10V210z M230,250v-10v-10h10h10h10v10v10v10h-10h-10h-10V250z M240,270h10h10h10v10h-10h-10h-10V270z M290,270v10h-10v-10
		H290z"/>
	<path d="M300,20h-10h-10h-10h-10h-10h-10v10v10v10v10v10v10v10h10h10h10h10h10h10h10V80V70V60V50V40V30V20H300z M300,40v10v10v10
		v10h-10h-10h-10h-10h-10V70V60V50V40V30h10h10h10h10h10V40z"/>
	<rect x="300" y="110" width="10" height="10"/>
	<rect x="300" y="150" width="10" height="10"/>
	<rect x="300" y="190" width="10" height="10"/>
</g>
</svg>
