<?xml version="1.0" encoding="utf-8"?>
<!-- Generator: Adobe Illustrator 21.0.0, SVG Export Plug-In . SVG Version: 6.00 Build 0)  -->
<svg version="1.1" id="图层_1" xmlns="http://www.w3.org/2000/svg" xmlns:xlink="http://www.w3.org/1999/xlink" x="0px" y="0px"
	 viewBox="0 0 168.5 76.8" style="enable-background:new 0 0 168.5 76.8;" xml:space="preserve">
<style type="text/css">
	.st0{fill:#F6CE00;}
	.st1{fill:#25C179;}
	.st2{fill:#FFFFFF;}
</style>
<g>
	<g>
		<path class="st0" d="M1.5,51.2h9.2c1,0,2-0.8,2.2-1.8l8.4-47.6c0.2-1-0.5-1.8-1.5-1.8h-9.2c-1,0-2,0.8-2.2,1.8L0,49.4
			C-0.1,50.4,0.5,51.2,1.5,51.2z"/>
		<path class="st0" d="M20.7,51.2h9.2c1,0,2-0.8,2.2-1.8l3.9-22c0.2-1-0.5-1.8-1.5-1.8h-9.2c-1,0-2,0.8-2.2,1.8l-3.9,22
			C19.1,50.4,19.7,51.2,20.7,51.2z"/>
		<path class="st1" d="M40,51.2h9.2c1,0,2-0.8,2.2-1.8l3.9-22c0.2-1-0.5-1.8-1.5-1.8h-9.2c-1,0-2,0.8-2.2,1.8l-3.9,22
			C38.3,50.4,38.9,51.2,40,51.2z"/>
		<path class="st1" d="M61.5,27.4L53.1,75c-0.2,1,0.5,1.8,1.5,1.8h9.2c1,0,2-0.8,2.2-1.8l8.4-47.6c0.2-1-0.5-1.8-1.5-1.8h-9.2
			C62.7,25.6,61.7,26.4,61.5,27.4z"/>
	</g>
	<g>
		<path class="st2" d="M97.6,13.8l-6.5,36.7c-0.1,0.4-0.4,0.7-0.8,0.7h-3c-0.4,0-0.7-0.3-0.6-0.7L90.9,27H88c-0.5,0-0.7-0.4-0.5-0.9
			l1-2.2c0.1-0.3,0.5-0.5,0.8-0.5h2.3l1.7-9.6c0.1-0.4,0.4-0.7,0.8-0.7h3C97.4,13,97.7,13.4,97.6,13.8z M119.5,37.7l-0.1,0.8h3.2
			c0.4,0,0.7,0.3,0.6,0.7l-0.4,2c-0.1,0.4-0.4,0.7-0.8,0.7h-3.2l-1.2,6.6c-0.1,0.8-0.5,1.4-1.1,2s-1.4,0.8-2.4,0.8L108,51
			c-0.4,0-0.6-0.3-0.6-0.7l0.3-2c0.1-0.4,0.5-0.7,0.9-0.7l3.6,0.2c0.3,0,0.6,0,0.8-0.2c0.2-0.1,0.4-0.4,0.4-0.8l0.8-4.8h-18
			c-0.5,0-0.7-0.5-0.5-0.9l1-2c0.1-0.3,0.5-0.5,0.8-0.5H115l0.1-0.8c0.1-0.4,0.4-0.7,0.8-0.7h3C119.3,37,119.6,37.3,119.5,37.7z
			 M103.3,42.5l4.8,3.2c0.3,0.2,0.3,0.7,0.1,1l-1.8,2.2c-0.3,0.3-0.7,0.4-1,0.2l-4.7-3.3c-0.3-0.2-0.3-0.7,0-1l1.8-2
			C102.6,42.4,103,42.3,103.3,42.5z M120.4,25c0.1-0.3-0.2-0.6-0.5-0.6h-5.3l-0.3,1.8h3.6c0.4,0,0.7,0.3,0.6,0.7l-0.3,1.5
			c-0.1,0.4-0.5,0.7-0.9,0.7h-3.6l-0.3,1.8h3.6c0.4,0,0.7,0.3,0.6,0.7l-0.3,1.6c-0.1,0.4-0.4,0.7-0.8,0.7H113l-0.2,1.3
			c-0.1,0.4-0.5,0.7-0.9,0.7H109c-0.4,0-0.7-0.3-0.6-0.7l0.2-1.3H105c-0.4,0-0.7-0.3-0.6-0.7l0.3-1.6c0.1-0.4,0.5-0.7,0.9-0.7h3.5
			l0.3-1.8h-3.6c-0.4,0-0.7-0.3-0.6-0.7l0.3-1.5c0.1-0.4,0.5-0.7,0.9-0.7h3.5l0.3-1.8H105c-0.2,0-0.3,0.1-0.4,0.2s-0.2,0.3-0.3,0.4
			l-1.9,10.7c-0.1,0.4-0.5,0.7-0.9,0.7h-2.8c-0.4,0-0.7-0.3-0.6-0.7l2.2-12.6c0.1-0.5,0.3-1,0.7-1.3c0.5-0.5,1-0.7,1.6-0.7h8.1
			l0.3-1.6h-10.5c-0.5,0-0.7-0.5-0.5-0.9l1-2c0.1-0.3,0.5-0.5,0.8-0.5h9.8l0.4-2.5c0.1-0.4,0.5-0.7,0.9-0.7h2.9
			c0.4,0,0.7,0.3,0.6,0.7l-0.4,2.5h3.6l-0.3-1.6c-0.1-0.3,0.2-0.7,0.5-0.7l2.9-0.5c0.3-0.1,0.6,0.2,0.7,0.5l0.5,2.4h2.6
			c0.4,0,0.7,0.3,0.6,0.7l-0.4,2.1c-0.1,0.4-0.4,0.7-0.8,0.7h-10.4l-0.3,1.6h8.1c0.6,0,1,0.2,1.3,0.6s0.4,0.9,0.3,1.4l-2.2,12.6
			c-0.1,0.4-0.4,0.7-0.8,0.7h-2.8c-0.4,0-0.7-0.3-0.6-0.7L120.4,25z"/>
		<path class="st2" d="M131.4,28.8l1-2.2c0.1-0.3,0.5-0.5,0.8-0.5h5.2c0.7,0,1.3,0.2,1.7,0.7s0.6,1.2,0.4,1.9l-2.1,11.7
			c-0.2,1.1-0.2,2,0.1,2.8c0.2,0.8,0.6,1.4,1.2,1.9c0.5,0.5,1.2,0.9,2,1.1c0.8,0.3,1.6,0.4,2.6,0.4h21.5c0.4,0,0.7,0.3,0.6,0.7
			l-0.4,2.2c-0.1,0.4-0.4,0.7-0.8,0.7h-20.7c-1.3,0-2.5-0.1-3.5-0.3s-1.8-0.4-2.5-0.8c-0.7-0.4-1.3-0.8-1.8-1.3l0,0
			c-0.8-0.9-2.3-0.8-3.3,0.1l-2.6,2.4c-0.4,0.3-0.9,0.3-1.1,0l-1.5-2.4c-0.2-0.3-0.1-0.7,0.2-1l4.6-3.7c0.2-0.2,0.4-0.5,0.6-0.7
			c0.1-0.3,0.2-0.6,0.3-0.9l2-11.2c0-0.2,0-0.3-0.1-0.4s-0.2-0.2-0.4-0.2H132C131.5,29.7,131.2,29.3,131.4,28.8z M140.1,13.8
			l2.9,6.1c0.2,0.3,0,0.8-0.4,1l-2.9,1.7c-0.4,0.2-0.8,0.1-0.9-0.2l-2.8-6.1c-0.2-0.3,0-0.8,0.4-1l2.9-1.6
			C139.6,13.3,140,13.4,140.1,13.8z M167.6,35.8c0.3,0.1,0.5,0.4,0.4,0.8l-1.5,4.4c-0.2,0.6-0.5,1.1-0.8,1.5s-0.6,0.7-1,0.9
			s-0.7,0.4-1.1,0.5c-0.4,0.1-0.8,0.1-1.2,0.1h-4.6c-1,0-1.7-0.3-2.3-0.8c-0.5-0.6-0.7-1.4-0.5-2.5l2-11.3c0.1-0.4-0.2-0.7-0.6-0.7
			h-2.9c-0.4,0-0.8,0.3-0.8,0.7c-0.7,3.4-1.8,6.2-3.3,8.6c-1.5,2.4-3.5,4.4-6.2,6.1c-0.3,0.2-0.7,0.2-0.9-0.1l-1.7-2.1
			c-0.3-0.3-0.1-0.9,0.3-1.1c1-0.6,1.8-1.2,2.5-1.9c0.9-0.9,1.7-1.8,2.4-2.9c0.7-1.1,1.2-2.2,1.6-3.4c0.3-1,0.6-2.1,0.9-3.3
			c0.1-0.4-0.2-0.7-0.6-0.7h-4.2c-0.5,0-0.7-0.5-0.5-0.9l1.2-2.7c0.1-0.3,0.5-0.5,0.8-0.5h23c0.4,0,0.7,0.3,0.6,0.7l-0.5,2.7
			c-0.1,0.4-0.4,0.7-0.8,0.7h-4.9c-0.4,0-0.8,0.3-0.8,0.7l-1.7,9.9c-0.1,0.4,0,0.6,0.1,0.8s0.3,0.3,0.6,0.3h1.5c0.4,0,0.7-0.1,1-0.3
			c0.2-0.2,0.4-0.6,0.6-1.2l1-3.1c0.1-0.4,0.6-0.7,1-0.6L167.6,35.8z M167.1,19.1h-19.3c-0.5,0-0.7-0.4-0.5-0.9l1.2-2.7
			c0.1-0.3,0.5-0.5,0.8-0.5h18.6c0.4,0,0.7,0.3,0.6,0.7l-0.5,2.7C167.8,18.8,167.4,19.1,167.1,19.1z"/>
	</g>
</g>
</svg>
