<?xml version="1.0" encoding="utf-8"?>
<!-- Generator: Adobe Illustrator 21.0.0, SVG Export Plug-In . SVG Version: 6.00 Build 0)  -->
<svg version="1.1" id="图层_1" xmlns="http://www.w3.org/2000/svg" xmlns:xlink="http://www.w3.org/1999/xlink" x="0px" y="0px"
	 viewBox="0 0 56.2 56.2" style="enable-background:new 0 0 56.2 56.2;" xml:space="preserve">
<style type="text/css">
	.st0{fill:#EEEEEE;}
	.st1{fill:#F6CE00;}
	.st2{fill:#25C179;}
	.st3{fill:#AAAAAA;}
	.st4{fill:#FF0000;}
	.st5{fill:none;stroke:#AAAAAA;stroke-miterlimit:10;}
	.st6{fill:#04D669;}
	.st7{fill:#E6162D;}
	.st8{fill:#FFFFFF;}
</style>
<circle cx="28.1" cy="28.1" r="28.1"/>
<path class="st8" d="M42.5,32.4c0,0-1-3.6-2.8-5.8c0,0,1-1.8-0.7-4.4c0,0-0.4-10.9-11-10.9s-11,10.9-11,10.9
	c-1.6,2.5-0.7,4.4-0.7,4.4c-1.8,2.2-2.8,5.8-2.8,5.8c-0.9,4.4,0.8,5.2,1.1,5.3s0.8-0.6,1-0.9c0.2-0.3,0.6-1.3,0.7-1.4
	c0.1-0.1,0.3,0.5,0.3,0.5c0.7,2.2,2.1,3.9,2.1,3.9c-1.5,0.6-2.5,1.6-2.5,1.6s-1.9,2.8,3.1,3.4s8.2-1.2,8.2-1.2h0.8
	c0,0,3.3,1.7,8.2,1.2s3.1-3.4,3.1-3.4s-1-1.1-2.5-1.6c0,0,1.5-1.6,2.1-3.9c0,0,0.2-0.6,0.3-0.5c0.1,0.1,0.5,1.1,0.7,1.4
	c0.2,0.3,0.8,1,1,0.9C41.7,37.6,43.4,36.8,42.5,32.4z"/>
</svg>
