<?xml version="1.0" encoding="utf-8"?>
<!-- Generator: Adobe Illustrator 21.0.0, SVG Export Plug-In . SVG Version: 6.00 Build 0)  -->
<svg version="1.1" id="图层_1" xmlns:ev="http://www.w3.org/2001/xml-events"
	 xmlns="http://www.w3.org/2000/svg" xmlns:xlink="http://www.w3.org/1999/xlink" x="0px" y="0px" viewBox="0 0 300 300"
	 style="enable-background:new 0 0 300 300;" xml:space="preserve">
<style type="text/css">
	.st0{fill:#FFFFFF;}
</style>
<g>
	<path class="st0" d="M60,96h12h12h12V84V72V60V48V36H84H72H60H48H36v12v12v12v12v12h12H60z M48,72V60V48h12h12h12v12v12v12H72H60
		H48V72z"/>
	<path class="st0" d="M60,264h12h12h12v-12v-12v-12v-12v-12H84H72H60H48H36v12v12v12v12v12h12H60z M48,240v-12v-12h12h12h12v12v12
		v12H72H60H48V240z"/>
	<rect x="96" y="132" class="st0" width="12" height="12"/>
	<rect x="96" y="156" class="st0" width="12" height="12"/>
	<rect x="132" y="240" class="st0" width="12" height="12"/>
	<rect x="144" y="84" class="st0" width="12" height="12"/>
	<rect x="168" y="252" class="st0" width="12" height="12"/>
	<polygon class="st0" points="192,144 192,132 180,132 180,120 168,120 168,108 168,96 156,96 156,108 144,108 144,96 132,96 
		132,108 132,120 132,132 144,132 144,120 156,120 156,132 168,132 168,144 180,144 180,156 168,156 168,168 180,168 192,168 
		192,156 	"/>
	<rect x="192" y="240" class="st0" width="12" height="12"/>
	<rect x="228" y="156" class="st0" width="12" height="12"/>
	<path class="st0" d="M240,36h-12h-12h-12v12v12v12v12v12h12h12h12h12h12V84V72V60V48V36h-12H240z M252,60v12v12h-12h-12h-12V72V60
		V48h12h12h12V60z"/>
	<path class="st0" d="M288,0h-12h-12h-12h-12h-12h-12h-12h-12h-12h-12h-12h-12h-12h-12h-12H96H84H72H60H48H36H24H12H0v12v12v12v12
		v12v12v12v12v12v12v12v12v12v12v12v12v12v12v12v12v12v12v12v12v12h12h12h12h12h12h12h12h12h12h12h12h12h12h12h12h12h12h12h12h12h12
		h12h12h12h12v-12v-12v-12v-12v-12v-12v-12v-12v-12v-12v-12v-12v-12v-12v-12v-12V96V84V72V60V48V36V24V12V0H288z M276,36v12v12v12
		v12v12v12h-12h-12h-12h-12h-12h-12h-12V96V84V72V60V48V36V24h12h12h12h12h12h12h12V36z M276,132h-12h-12v12h12v12v12h12v12v12h-12
		v-12v-12h-12h-12v12h12v12h-12v-12h-12v12h-12v-12v-12v-12h-12v12h-12v12h12v12h-12v-12h-12h-12h-12v12v12v12h-12v12v12h12v-12h12
		v12h12v-12v-12h-12v-12h12v12h12h12v12v12h12v12h12v12h-12v-12h-12v12v12h-12h-12h-12h-12v-12h-12h-12v12h-12v-12v-12v-12h12v-12
		v-12h-12v-12h12v12h12v-12v-12v-12h12v-12v-12v-12v-12h-12v12h-12v-12h-12v12v12v12h12v-12h12v12h-12v12v12h-12v-12h-12H96v-12H84
		H72v-12v-12v-12h12v-12h12h12v12h12v-12v-12V96V84V72h12h12h12h12h12v12v12v12v12h12h12h12h12v12h-12h-12v12h12v12h12v-12h12v-12
		h12v-12h12h12V132z M276,252h-12h-12v12v12h-12v-12v-12h12v-12h12h12V252z M276,276h-12v-12h12V276z M228,228v-12h-12v-12h12h12h12
		h12v12v12h-12v-12h-12v12v12h-12V228z M24,264v-12v-12v-12v-12v-12v-12h12h12h12h12h12h12h12v12v12v12v12v12v12v12H96H84H72H60H48
		H36H24V264z M24,144v-12v-12h12h12h12v12H48H36v12v12H24V144z M24,96V84V72V60V48V36V24h12h12h12h12h12h12h12v12v12v12v12v12v12v12
		H96H84H72H60H48H36H24V96z M180,36h-12V24h12V36z M180,60h-12V48h12V60z M144,36h12v12h-12V36z M132,36v12h-12V36V24h12V36z
		 M60,156H48v-12h12V156z M60,180H48v-12h12V180z"/>
</g>
<g>
	<polygon points="36,144 36,132 48,132 60,132 60,120 48,120 36,120 24,120 24,132 24,144 24,156 36,156 	"/>
	<path d="M48,108h12h12h12h12h12V96V84V72V60V48V36V24H96H84H72H60H48H36H24v12v12v12v12v12v12v12h12H48z M36,84V72V60V48V36h12h12
		h12h12h12v12v12v12v12v12H84H72H60H48H36V84z"/>
	<rect x="48" y="144" width="12" height="12"/>
	<rect x="48" y="168" width="12" height="12"/>
	<polygon points="72,84 84,84 84,72 84,60 84,48 72,48 60,48 48,48 48,60 48,72 48,84 60,84 	"/>
	<polygon points="60,216 48,216 48,228 48,240 48,252 60,252 72,252 84,252 84,240 84,228 84,216 72,216 	"/>
	<path d="M84,192H72H60H48H36H24v12v12v12v12v12v12v12h12h12h12h12h12h12h12v-12v-12v-12v-12v-12v-12v-12H96H84z M96,216v12v12v12
		v12H84H72H60H48H36v-12v-12v-12v-12v-12h12h12h12h12h12V216z"/>
	<polygon points="108,144 96,144 96,132 108,132 108,120 96,120 84,120 84,132 72,132 72,144 72,156 72,168 84,168 96,168 96,156 
		108,156 108,168 96,168 96,180 108,180 120,180 120,192 132,192 132,180 132,168 120,168 120,156 120,144 120,132 108,132 	"/>
	<polygon points="132,36 132,24 120,24 120,36 120,48 132,48 	"/>
	<polygon points="132,108 132,96 144,96 144,84 156,84 156,96 168,96 168,108 168,120 180,120 180,108 180,96 180,84 180,72 168,72 
		156,72 144,72 132,72 120,72 120,84 120,96 120,108 120,120 120,132 132,132 132,120 	"/>
	<rect x="120" y="204" width="12" height="12"/>
	<rect x="132" y="132" width="12" height="12"/>
	<rect x="132" y="156" width="12" height="12"/>
	<polygon points="132,228 132,240 144,240 144,228 144,216 132,216 	"/>
	<path d="M132,252v-12h-12v12v12v12h12v-12h12h12v12h12h12h12h12v-12v-12h-12v-12h12v-12v-12h-12h-12v12v12h-12v-12h-12v12h-12v12
		H132z M168,252h12v12h-12V252z"/>
	<rect x="144" y="36" width="12" height="12"/>
	<rect x="144" y="96" width="12" height="12"/>
	<rect x="144" y="120" width="12" height="12"/>
	<polygon points="144,192 144,204 144,216 156,216 156,204 156,192 156,180 144,180 	"/>
	<rect x="168" y="24" width="12" height="12"/>
	<rect x="168" y="48" width="12" height="12"/>
	<polygon points="168,168 168,156 180,156 180,144 168,144 168,132 156,132 156,144 156,156 156,168 156,180 168,180 180,180 
		192,180 192,168 180,168 	"/>
	<rect x="168" y="204" width="12" height="12"/>
	<rect x="192" y="180" width="12" height="12"/>
	<polygon points="204,144 204,132 216,132 228,132 228,120 216,120 204,120 192,120 180,120 180,132 192,132 192,144 192,156 
		192,168 204,168 204,156 216,156 216,144 	"/>
	<rect x="204" y="240" width="12" height="12"/>
	<polygon points="228,156 216,156 216,168 216,180 216,192 228,192 228,180 240,180 240,168 228,168 	"/>
	<rect x="216" y="252" width="12" height="12"/>
	<polygon points="228,48 216,48 216,60 216,72 216,84 228,84 240,84 252,84 252,72 252,60 252,48 240,48 	"/>
	<polygon points="228,240 240,240 240,228 240,216 252,216 252,228 264,228 264,216 264,204 252,204 240,204 228,204 216,204 
		216,216 228,216 228,228 	"/>
	<polygon points="240,144 228,144 228,156 240,156 240,168 252,168 264,168 264,156 264,144 252,144 252,132 240,132 	"/>
	<rect x="240" y="180" width="12" height="12"/>
	<polygon points="240,264 240,276 252,276 252,264 252,252 240,252 	"/>
	<polygon points="252,120 252,132 264,132 276,132 276,120 264,120 	"/>
	<polygon points="252,240 252,252 264,252 276,252 276,240 264,240 	"/>
	<path d="M264,24h-12h-12h-12h-12h-12h-12v12v12v12v12v12v12v12h12h12h12h12h12h12h12V96V84V72V60V48V36V24H264z M264,48v12v12v12
		v12h-12h-12h-12h-12h-12V84V72V60V48V36h12h12h12h12h12V48z"/>
	<polygon points="264,192 276,192 276,180 276,168 264,168 264,180 	"/>
	<rect x="264" y="264" width="12" height="12"/>
</g>
</svg>
