<?xml version="1.0" encoding="utf-8"?>
<!-- Generator: Adobe Illustrator 21.0.0, SVG Export Plug-In . SVG Version: 6.00 Build 0)  -->
<svg version="1.1" id="图层_1" xmlns="http://www.w3.org/2000/svg" xmlns:xlink="http://www.w3.org/1999/xlink" x="0px" y="0px"
	 viewBox="0 0 56.2 56.2" style="enable-background:new 0 0 56.2 56.2;" xml:space="preserve">
<style type="text/css">
	.st0{fill:#EEEEEE;}
	.st1{fill:#F6CE00;}
	.st2{fill:#25C179;}
	.st3{fill:#AAAAAA;}
	.st4{fill:#FF0000;}
	.st5{fill:none;stroke:#AAAAAA;stroke-miterlimit:10;}
	.st6{fill:#04D669;}
	.st7{fill:#E6162D;}
	.st8{fill:#FFFFFF;}
</style>
<circle class="st6" cx="28.1" cy="28.1" r="28.1"/>
<path class="st8" d="M34.5,22.2c0.4,0,0.8,0,1.2,0.1c-1.1-5.2-6.7-9-13-9c-7.1,0-12.9,4.8-12.9,11c0,3.5,1.9,6.4,5.2,8.7l-1.3,3.9
	l4.5-2.3c1.6,0.3,2.9,0.6,4.5,0.6c0.4,0,0.8,0,1.2,0c-0.3-0.9-0.4-1.8-0.4-2.7C23.6,26.8,28.4,22.2,34.5,22.2z M27.6,18.7
	c1,0,1.6,0.6,1.6,1.6c0,1-0.6,1.6-1.6,1.6c-1,0-1.9-0.6-1.9-1.6C25.7,19.4,26.6,18.7,27.6,18.7z M18.6,22c-1,0-1.9-0.6-1.9-1.6
	c0-1,1-1.6,1.9-1.6s1.6,0.6,1.6,1.6C20.2,21.3,19.5,22,18.6,22z M46.3,32.3c0-5.1-5.2-9.3-10.9-9.3c-6.1,0-11,4.2-11,9.3
	c0,5.2,4.8,9.3,11,9.3c1.3,0,2.6-0.3,3.9-0.6l3.5,1.9l-1-3.2C44.3,37.7,46.3,35.2,46.3,32.3z M31.8,30.6c-0.6,0-1.3-0.6-1.3-1.3
	c0-0.6,0.6-1.3,1.3-1.3c1,0,1.6,0.6,1.6,1.3C33.4,30,32.8,30.6,31.8,30.6z M38.9,30.6c-0.6,0-1.3-0.6-1.3-1.3c0-0.6,0.6-1.3,1.3-1.3
	c1,0,1.6,0.6,1.6,1.3C40.5,30,39.8,30.6,38.9,30.6z"/>
</svg>
