<?xml version="1.0" encoding="utf-8"?>
<!-- Generator: Adobe Illustrator 21.0.0, SVG Export Plug-In . SVG Version: 6.00 Build 0)  -->
<svg version="1.1" id="图层_1" xmlns="http://www.w3.org/2000/svg" xmlns:xlink="http://www.w3.org/1999/xlink" x="0px" y="0px"
	 viewBox="0 0 56.2 56.2" style="enable-background:new 0 0 56.2 56.2;" xml:space="preserve">
<style type="text/css">
	.st0{fill:#EEEEEE;}
	.st1{fill:#F6CE00;}
	.st2{fill:#25C179;}
	.st3{fill:#AAAAAA;}
	.st4{fill:#FF0000;}
	.st5{fill:none;stroke:#AAAAAA;stroke-miterlimit:10;}
	.st6{fill:#04D669;}
	.st7{fill:#E6162D;}
	.st8{fill:#FFFFFF;}
</style>
<circle class="st7" cx="28.1" cy="28.1" r="28.1"/>
<g>
	<g>
		<path class="st8" d="M36.9,27.6c-1.4-0.3-0.7-1-0.7-1s1.4-2.3-0.3-4c-2.1-2.1-7,0.3-7,0.3c-1.9,0.6-1.4-0.3-1.1-1.8
			c0-1.8-0.6-4.7-5.7-3c-5,1.8-9.4,7.9-9.4,7.9c-3,4.1-2.6,7.2-2.6,7.2c0.7,7,8.1,8.9,13.7,9.3c5.9,0.5,14-2.1,16.5-7.4
			C42.7,29.8,38.2,27.8,36.9,27.6z M24.2,40.5c-5.9,0.3-10.7-2.7-10.7-6.7s4.8-7.2,10.7-7.5c5.9-0.3,10.7,2.2,10.7,6.2
			C34.9,36.4,30.1,40.2,24.2,40.5z"/>
		<path class="st8" d="M39.7,25.1c0.5,0,0.9-0.4,1-0.9v-0.1c0.7-6.6-5.4-5.5-5.4-5.5c-0.5,0-1,0.4-1,1c0,0.5,0.5,1,1,1
			c4.4-1,3.4,3.4,3.4,3.5C38.7,24.6,39.1,25.1,39.7,25.1z"/>
		<path class="st8" d="M38.9,14c-2.1-0.5-4.2-0.3-4.9-0.2c0,0-0.1-0.1-0.1-0.1s-0.1-0.1-0.1-0.1c-0.6,0.2-1,0.7-1,1.4
			c0,0.8,0.6,1.4,1.4,1.4c0,0,0.8-0.1,1.3-0.3c0.5-0.2,4.9-0.2,7,3.5c1.2,2.7,0.5,4.5,0.5,4.8c0,0-0.3,0.7-0.3,1.4
			c0,0.8,0.6,1.8,1.4,1.8c0.6,0,1.2,0.5,1.4-0.7C47.9,19.1,42.8,14.9,38.9,14z"/>
	</g>
	<path class="st8" d="M22.9,28.9c-5.9,0.7-5.3,6.3-5.3,6.3s-0.1,1.8,1.6,2.7c3.5,1.9,7.1,0.8,8.9-1.6C30,34,28.9,28.2,22.9,28.9z
		 M21.5,36.9c-1.1,0.1-2-0.6-2-1.5c0-1,0.7-1.9,1.9-2.1c1.3-0.1,2.1,0.6,2.1,1.6C23.5,35.9,22.6,36.8,21.5,36.9z M25,33.8
		c-0.3,0.3-0.9,0.2-1-0.1c-0.2-0.3-0.2-0.9,0.2-1.1c0.5-0.3,0.9-0.2,1.1,0.1C25.5,33,25.3,33.5,25,33.8z"/>
</g>
</svg>
